<?xml version="1.0" standalone="no"?><!DOCTYPE svg PUBLIC "-//W3C//DTD SVG 1.1//EN" "http://www.w3.org/Graphics/SVG/1.1/DTD/svg11.dtd"><svg t="1544797132619" class="icon" style="" viewBox="0 0 1024 1024" version="1.1" xmlns="http://www.w3.org/2000/svg" p-id="807" xmlns:xlink="http://www.w3.org/1999/xlink" width="200" height="200"><defs><style type="text/css"></style></defs><path d="M348.1 972.8H96c-29.3 0-53.1-23.8-53.1-53.1V104.3C42.8 75 66.6 51.2 96 51.2h252.1c29.3 0 53.1 23.8 53.1 53.1v815.3c0 29.4-23.7 53.2-53.1 53.2z" fill="#4EEAAB" p-id="808"></path><path d="M964.1 473.9l-457.5-410c-5.1-4.5-11.1-6.6-16.9-6.6-13.2 0-25.8 10.3-25.8 25.6v858.2c0 15.3 12.6 25.6 25.8 25.6 5.9 0 11.9-2 16.9-6.6l457.5-410c22.7-20.3 22.7-55.9 0-76.2zM540.7 826.4V197.6L891.6 512 540.7 826.4zM348.1 51.2H96c-29.3 0-53.1 23.8-53.1 53.1v815.3c0 29.3 23.8 53.1 53.1 53.1h252.1c29.3 0 53.1-23.8 53.1-53.1V104.3c0-29.3-23.7-53.1-53.1-53.1zM324.4 896H119.6V128h204.8v768z" fill="#454563" p-id="809"></path></svg>